<?xml version="1.0" standalone="no"?><!DOCTYPE svg PUBLIC "-//W3C//DTD SVG 1.1//EN" "http://www.w3.org/Graphics/SVG/1.1/DTD/svg11.dtd"><svg t="1535815292769" class="icon" style="" viewBox="0 0 1024 1024" version="1.1" xmlns="http://www.w3.org/2000/svg" p-id="4876" xmlns:xlink="http://www.w3.org/1999/xlink" width="200" height="200"><defs><style type="text/css"></style></defs><path d="M435.38967 100.304474C506.157433 39.745213 565.753763 15.424294 616.447329 25.391297L616.447329 25.337061c48.951899 9.588379 85.418438 48.913013 111.500467 116.296703 83.256192 16.468067 139.323139 51.458999 172.310438 102.051257 33.724079 51.891857 41.839921 117.922736 28.825512 195.70731 52.534494 103.07968 79.30316 196.84318 58.963926 273.488815-21.078061 80.006172-89.791026 137.421836-227.483015 161.90546-53.694923 80.763418-115.187439 120.683617-183.533037 125.721353-67.661006 4.983501-139.219785-25.134447-213.83518-83.795475-117.982088-10.346649-206.138894-45.986357-257.780041-112.670106-51.957349-67.112514-65.182558-162.337295-32.565696-290.822598-53.431933-111.042026-63.49615-196.733687-30.193673-257.131265 33.935903-61.315484 109.23589-92.084255 226.006384-92.137467C326.25918 119.587656 382.009925 97.054453 435.38967 100.304474M604.432691 89.687672c-21.921265-4.333702-49.849338 4.602831-84.10042 27.408233 24.239054 12.837376 43.682895 28.438703 61.124126 47.830355 25.76992 28.709879 45.474704 64.133669 69.872371 111.043049 33.513278 14.298658 64.182788 39.974433 88.421842 70.632687 28.348652 35.912931 48.479131 79.625502 54.641481 120.520911l0.265036 2.548032c5.059226 71.824839-3.687996 129.891326-37.412075 178.74908-33.093722 47.939849-88.844467 84.178191-178.002067 112.560612l-2.952238 0.976234-3.162016 0.325411c-123.831306 12.998035-215.043704 6.010901-279.912108-27.572986-69.028143-35.912931-106.653065-98.963942-118.981858-196.247616l-0.106424-0.487094c-0.527003-4.332678-0.789992-8.178263-0.896416-11.537777l0.212848 0c-1.001817-38.83754 14.385639-94.467535 46.898123-141.701303 33.143864-48.046273 84.047208-88.618317 153.918555-96.743368 6.006807-0.757247 12.384052-1.191128 19.075451-1.461281 23.817452-1.408069 46.159296 4.765537 66.185398 16.250102 25.609261 14.679327 46.898123 38.295188 62.073754 65.920362 14.754029 26.975375 23.923876 58.228169 25.608238 88.887446 1.582031 29.413913-3.687996 58.71731-17.493419 84.068697l0.105401 0.052189c-19.497053 36.346813-43.104727 54.600549-72.613808 62.076824-26.346041 6.770194-54.591339 3.465938-88.262206-2.818185l-2.212388-0.487094c-23.343661-6.068206-43.789319-30.713512-51.851948-54.869678-3.003404-8.885368-4.530177-18.038842-4.373611-26.650987 0.159636-11.214413 3.267417-21.991874 9.801227-31.200606 9.907651-13.704117 25.189705-21.775956 47.004547-20.149922l31.353079 2.38328-1.950422 32.284287c-0.419556 7.474228 1.001817 11.700483 3.267417 13.594623l0 0.055259c2.00261 1.679245 5.163603 2.707668 8.853645 3.142573 5.584182 0.703011 11.80179 0 17.915022-1.734504 13.910824-4.062526 26.662243-13.163811 31.405267-25.457812 5.321192-21.992897 3.004427-44.148499-4.952802-63.322188-6.639211-16.087397-17.020652-29.898961-29.92966-39.433104-12.541641-9.261944-27.403117-14.679327-43.527352-14.46341-17.389042 0.162706-36.779671 6.824429-57.015551 22.100344-47.0025 50.483788-66.552765 99.506295-66.025763 142.188396 0.316202 28.492938 9.642614 54.81749 25.662473 77.025281 16.651238 23.075555 40.36329 42.088584 68.871577 55.142901 53.222155 24.483624 121.987309 28.113291 191.438077 0.271176l4.744048-1.841951 5.478781-0.325411c51.219545-2.38328 92.108814-21.99085 120.038934-51.024094 20.181645-21.071921 33.828456-47.233768 39.784098-75.454506 5.847172-28.221762 4.16281-58.447157-6.326079-87.426165-15.226796-41.97909-48.845475-82.278935-104.175641-111.800295l-9.800203-5.253654-4.426823-10.400884c-40.785915-93.058442-85.258803-143.380548-132.684952-157.736511-45.527916-13.864776-98.011244 5.687536-155.922189 52.489468l-8.800433 7.095605-11.540847-0.160659c-97.853655-1.572822-158.241001 18.090007-180.687222 58.987463-23.185049 41.816384-10.803044 110.447485 37.043684 205.941396l5.638417 11.43033-3.370771 12.404518c-30.66951 112.77653-22.765493 192.725396 17.59882 244.835218 41.049928 52.977585 117.350708 81.086783 222.264153 88.941682l9.803273 0.704035 7.587815 6.231935c65.022922 52.541657 124.568087 79.840396 177.473017 75.886341 51.115168-3.683902 98.750071-37.861306 142.431943-107.899452l7.852852-12.514012 14.227026-2.27481c117.982088-18.469654 174.735673-59.799968 189.753715-116.567879 15.911388-60.343343-10.381441-142.134161-58.965973-235.356332l-5.478781-10.345626 2.106987-11.645225c12.541641-65.651232 8.16803-119.275547-17.071817-158.058852-25.296129-38.947034-73.087599-65.38108-147.597593-77.134775l-19.127639-2.978844-6.16542-18.688641c-18.495236-54.980195-41.36613-86.126566-69.76697-91.705632L604.432691 89.687672z" p-id="4877" fill="#ff630e"></path></svg>